<svg id="Layer_1" data-name="Layer 1" xmlns="http://www.w3.org/2000/svg" xmlns:xlink="http://www.w3.org/1999/xlink" viewBox="0 0 368.471 369.757"><defs><style>.cls-1{fill:#2d2e32;}.cls-2{fill:url(#linear-gradient);}.cls-3{fill:url(#linear-gradient-2);}.cls-4{fill:url(#linear-gradient-3);}.cls-5{fill:url(#linear-gradient-4);}.cls-6{fill:url(#linear-gradient-5);}</style><linearGradient id="linear-gradient" x1="121.685" y1="182.361" x2="237.403" y2="182.361" gradientUnits="userSpaceOnUse"><stop offset="0.006" stop-color="#5ce29d"/><stop offset="0.106" stop-color="#56d393"/><stop offset="0.32" stop-color="#4cb881"/><stop offset="0.539" stop-color="#45a574"/><stop offset="0.763" stop-color="#409a6d"/><stop offset="1" stop-color="#3f966a"/></linearGradient><linearGradient id="linear-gradient-2" x1="193.618" y1="223.66" x2="243.035" y2="223.66" xlink:href="#linear-gradient"/><linearGradient id="linear-gradient-3" x1="231.148" y1="244.302" x2="246.786" y2="244.302" xlink:href="#linear-gradient"/><linearGradient id="linear-gradient-4" x1="149.833" y1="153.603" x2="209.255" y2="153.603" xlink:href="#linear-gradient"/><linearGradient id="linear-gradient-5" x1="156.088" y1="178.624" x2="203" y2="178.624" xlink:href="#linear-gradient"/></defs><circle class="cls-1" cx="184.235" cy="184.879" r="170.794"/><path class="cls-2" d="M170.394,247.084a4.686,4.686,0,0,1-3.763-1.878l-6.347-8.467a6.711,6.711,0,0,0-4.96-2.877,6.557,6.557,0,0,0-5.259,2.328c-9.065,9.669-15.974,8.912-19.3,7.608-3.39-1.344-9.083-5.66-9.083-19.5V153.845c0-27.748,8-36.208,34.232-36.208h47.254c26.236,0,34.232,8.46,34.232,36.208v26.666a4.691,4.691,0,0,1-9.382,0V153.845c0-22.565-3.946-26.826-24.85-26.826H155.917c-20.9,0-24.85,4.261-24.85,26.826V224.3c0,6.545,1.631,10.173,3.152,10.775,1.112.443,4.221-.193,8.967-5.263a15.688,15.688,0,0,1,24.6,1.3l6.353,8.469a4.692,4.692,0,0,1-3.75,7.5Z"/><path class="cls-3" d="M218.327,248.367a24.707,24.707,0,1,1,24.708-24.706A24.738,24.738,0,0,1,218.327,248.367Zm0-40.032a15.325,15.325,0,1,0,15.326,15.326A15.346,15.346,0,0,0,218.327,208.335Z"/><path class="cls-4" d="M242.1,252.121a4.671,4.671,0,0,1-3.317-1.375l-6.255-6.255a4.691,4.691,0,1,1,6.633-6.634l6.255,6.255a4.692,4.692,0,0,1-3.316,8.009Z"/><path class="cls-5" d="M204.564,158.295h-50.04a4.692,4.692,0,0,1,0-9.383h50.04a4.692,4.692,0,0,1,0,9.383Z"/><path class="cls-6" d="M198.309,183.315h-37.53a4.692,4.692,0,0,1,0-9.383h37.53a4.692,4.692,0,0,1,0,9.383Z"/></svg>