<svg id="Layer_1" data-name="Layer 1" xmlns="http://www.w3.org/2000/svg" xmlns:xlink="http://www.w3.org/1999/xlink" viewBox="0 0 368.471 369.757"><defs><style>.cls-1{fill:#2d2e32;}.cls-2{fill:url(#linear-gradient);}.cls-3{fill:url(#linear-gradient-2);}</style><linearGradient id="linear-gradient" x1="116.993" y1="184.879" x2="251.477" y2="184.879" gradientUnits="userSpaceOnUse"><stop offset="0.006" stop-color="#5ce29d"/><stop offset="0.106" stop-color="#56d393"/><stop offset="0.32" stop-color="#4cb881"/><stop offset="0.539" stop-color="#45a574"/><stop offset="0.763" stop-color="#409a6d"/><stop offset="1" stop-color="#3f966a"/></linearGradient><linearGradient id="linear-gradient-2" x1="135.759" y1="184.879" x2="245.222" y2="184.879" xlink:href="#linear-gradient"/></defs><circle class="cls-1" cx="184.235" cy="184.879" r="170.794"/><path class="cls-2" d="M246.786,252.121H140.45a23.483,23.483,0,0,1-23.457-23.457V122.328a4.692,4.692,0,0,1,9.383,0V228.664a14.089,14.089,0,0,0,14.074,14.074H246.786a4.692,4.692,0,0,1,0,9.383Z"/><path class="cls-3" d="M140.447,220.845a4.691,4.691,0,0,1-3.558-7.745l28.737-33.53a17.258,17.258,0,0,1,12.4-5.992,17.5,17.5,0,0,1,12.822,5.027l5.913,5.913a8.02,8.02,0,0,0,5.83,2.285,7.74,7.74,0,0,0,5.638-2.724l28.738-33.53a4.692,4.692,0,1,1,7.122,6.109l-28.737,33.529a17.26,17.26,0,0,1-12.4,5.992,17.453,17.453,0,0,1-12.822-5.027l-5.913-5.913a7.829,7.829,0,0,0-5.831-2.284,7.734,7.734,0,0,0-5.638,2.724l-28.737,33.529A4.685,4.685,0,0,1,140.447,220.845Z"/></svg>