<svg id="Layer_1" data-name="Layer 1" xmlns="http://www.w3.org/2000/svg" xmlns:xlink="http://www.w3.org/1999/xlink" viewBox="0 0 368.471 369.757"><defs><style>.cls-1{fill:#2d2e32;}.cls-2{fill:url(#linear-gradient);}.cls-3{fill:url(#linear-gradient-2);}.cls-4{fill:url(#linear-gradient-3);}.cls-5{fill:url(#linear-gradient-4);}</style><linearGradient id="linear-gradient" x1="120.523" y1="250.161" x2="242.957" y2="250.161" gradientUnits="userSpaceOnUse"><stop offset="0.006" stop-color="#5ce29d"/><stop offset="0.106" stop-color="#56d393"/><stop offset="0.32" stop-color="#4cb881"/><stop offset="0.539" stop-color="#45a574"/><stop offset="0.763" stop-color="#409a6d"/><stop offset="1" stop-color="#3f966a"/></linearGradient><linearGradient id="linear-gradient-2" x1="120.523" y1="197.97" x2="152.541" y2="197.97" xlink:href="#linear-gradient"/><linearGradient id="linear-gradient-3" x1="165.73" y1="187.963" x2="197.749" y2="187.963" xlink:href="#linear-gradient"/><linearGradient id="linear-gradient-4" x1="210.938" y1="177.956" x2="242.957" y2="177.956" xlink:href="#linear-gradient"/></defs><circle class="cls-1" cx="184.235" cy="184.879" r="170.794"/><path class="cls-2" d="M238.248,254.87H125.232a4.709,4.709,0,0,1,0-9.418H238.248a4.709,4.709,0,0,1,0,9.418Z"/><path class="cls-3" d="M141.554,236.034H131.51a11,11,0,0,1-10.987-10.988V170.893a11,11,0,0,1,10.987-10.988h10.044a11,11,0,0,1,10.987,10.988v54.153A11,11,0,0,1,141.554,236.034ZM131.51,169.323a1.589,1.589,0,0,0-1.569,1.57v54.153a1.588,1.588,0,0,0,1.569,1.57h10.044a1.588,1.588,0,0,0,1.569-1.57V170.893a1.589,1.589,0,0,0-1.569-1.57Z"/><path class="cls-4" d="M186.761,236.034H176.718a11,11,0,0,1-10.988-10.988V150.88a11,11,0,0,1,10.988-10.988h10.043a11,11,0,0,1,10.988,10.988v74.166A11,11,0,0,1,186.761,236.034ZM176.718,149.31a1.589,1.589,0,0,0-1.57,1.57v74.166a1.589,1.589,0,0,0,1.57,1.57h10.043a1.588,1.588,0,0,0,1.57-1.57V150.88a1.588,1.588,0,0,0-1.57-1.57Z"/><path class="cls-5" d="M231.969,236.034H221.926a11,11,0,0,1-10.988-10.988v-94.18a11,11,0,0,1,10.988-10.987h10.043a11,11,0,0,1,10.988,10.987v94.18A11,11,0,0,1,231.969,236.034ZM221.926,129.3a1.588,1.588,0,0,0-1.57,1.569v94.18a1.588,1.588,0,0,0,1.57,1.57h10.043a1.589,1.589,0,0,0,1.57-1.57v-94.18a1.589,1.589,0,0,0-1.57-1.569Z"/></svg>