<svg id="Layer_1" data-name="Layer 1" xmlns="http://www.w3.org/2000/svg" xmlns:xlink="http://www.w3.org/1999/xlink" viewBox="0 0 368.471 369.757"><defs><style>.cls-1{fill:#2d2e32;}.cls-2{fill:url(#linear-gradient);}.cls-3{fill:url(#linear-gradient-2);}.cls-4{fill:url(#linear-gradient-3);}.cls-5{fill:url(#linear-gradient-4);}.cls-6{fill:url(#linear-gradient-5);}</style><linearGradient id="linear-gradient" x1="123.249" y1="180.471" x2="245.222" y2="180.471" gradientUnits="userSpaceOnUse"><stop offset="0.006" stop-color="#5ce29d"/><stop offset="0.106" stop-color="#56d393"/><stop offset="0.32" stop-color="#4cb881"/><stop offset="0.539" stop-color="#45a574"/><stop offset="0.763" stop-color="#409a6d"/><stop offset="1" stop-color="#3f966a"/></linearGradient><linearGradient id="linear-gradient-2" x1="116.993" y1="133.558" x2="251.477" y2="133.558" xlink:href="#linear-gradient"/><linearGradient id="linear-gradient-3" x1="154.521" y1="243.022" x2="188.927" y2="243.022" xlink:href="#linear-gradient"/><linearGradient id="linear-gradient-4" x1="179.542" y1="252.405" x2="213.949" y2="252.405" xlink:href="#linear-gradient"/><linearGradient id="linear-gradient-5" x1="151.394" y1="180.471" x2="217.077" y2="180.471" xlink:href="#linear-gradient"/></defs><circle class="cls-1" cx="184.235" cy="184.879" r="170.794"/><path class="cls-2" d="M222.364,232.075H146.106c-14.526,0-22.857-8.332-22.857-22.861V133.558a4.692,4.692,0,0,1,4.691-4.691H240.531a4.692,4.692,0,0,1,4.691,4.691v75.656C245.222,223.743,236.89,232.075,222.364,232.075ZM132.631,138.25v70.964c0,9.322,4.154,13.479,13.475,13.479h76.258c9.322,0,13.475-4.157,13.475-13.479V138.25Z"/><path class="cls-3" d="M246.786,138.25h-125.1a4.692,4.692,0,1,1,0-9.383h125.1a4.692,4.692,0,0,1,0,9.383Z"/><path class="cls-4" d="M159.221,263.351a4.691,4.691,0,0,1-2.1-8.888l22.424-11.212V227.384a4.692,4.692,0,0,1,9.383,0v18.765a4.684,4.684,0,0,1-2.6,4.2l-25.02,12.51A4.66,4.66,0,0,1,159.221,263.351Z"/><path class="cls-5" d="M209.249,263.351a4.663,4.663,0,0,1-2.089-.5l-25.02-12.51a4.69,4.69,0,1,1,4.19-8.393l25.021,12.51a4.691,4.691,0,0,1-2.1,8.888Z"/><path class="cls-6" d="M156.088,194.545a4.693,4.693,0,0,1-3.006-8.295l19.712-16.429a7.729,7.729,0,0,1,11.716,1.985l6.561,10.937,18.307-15.258a4.692,4.692,0,0,1,6.01,7.208l-19.712,16.428a7.729,7.729,0,0,1-11.716-1.985L177.4,178.2l-18.307,15.259A4.687,4.687,0,0,1,156.088,194.545Z"/></svg>