<svg id="Layer_1" data-name="Layer 1" xmlns="http://www.w3.org/2000/svg" xmlns:xlink="http://www.w3.org/1999/xlink" viewBox="0 0 368.471 369.757"><defs><style>.cls-1{fill:#2d2e32;}.cls-2{fill:url(#linear-gradient);}.cls-3{fill:url(#linear-gradient-2);}.cls-4{fill:url(#linear-gradient-3);}</style><linearGradient id="linear-gradient" x1="107.627" y1="187.374" x2="260.844" y2="187.374" gradientUnits="userSpaceOnUse"><stop offset="0.006" stop-color="#5ce29d"/><stop offset="0.106" stop-color="#56d393"/><stop offset="0.32" stop-color="#4cb881"/><stop offset="0.539" stop-color="#45a574"/><stop offset="0.763" stop-color="#409a6d"/><stop offset="1" stop-color="#3f966a"/></linearGradient><linearGradient id="linear-gradient-2" x1="133.46" y1="189.159" x2="235.011" y2="189.159" xlink:href="#linear-gradient"/><linearGradient id="linear-gradient-3" x1="178.891" y1="193.666" x2="189.58" y2="193.666" xlink:href="#linear-gradient"/></defs><circle class="cls-1" cx="184.235" cy="184.879" r="170.794"/><path class="cls-2" d="M205.614,263.983H162.856c-38.715,0-55.229-16.518-55.229-55.23V166c0-38.711,16.514-55.229,55.229-55.229h42.758c38.715,0,55.23,16.518,55.23,55.229v42.758C260.844,247.465,244.329,263.983,205.614,263.983ZM162.856,121.455c-32.883,0-44.54,11.657-44.54,44.54v42.758c0,32.883,11.657,44.54,44.54,44.54h42.758c32.883,0,44.54-11.657,44.54-44.54V166c0-32.883-11.657-44.54-44.54-44.54Z"/><path class="cls-3" d="M184.228,236.914a10.016,10.016,0,0,1-4.822-1.19c-8.282-4.523-22.911-9.322-32.09-10.55l-1.336-.181A14.583,14.583,0,0,1,133.46,210.7V155.821a14.513,14.513,0,0,1,4.614-10.662,14.361,14.361,0,0,1,10.989-3.706c10.4.842,25.534,5.86,34.455,11.424l.7.417.286-.188c8.949-5.626,24.107-10.71,34.567-11.6.153-.014.577-.021.731-.021a14.092,14.092,0,0,1,10.6,3.737,14.285,14.285,0,0,1,4.607,10.648V210.7a14.6,14.6,0,0,1-12.59,14.3l-1.517.184c-9.144,1.218-23.808,6.055-31.95,10.551A9.562,9.562,0,0,1,184.228,236.914Zm-36.411-84.82a3.64,3.64,0,0,0-2.5.932,3.733,3.733,0,0,0-1.163,2.795V210.7a4.018,4.018,0,0,0,3.223,3.692l1.385.188c10.4,1.392,26.4,6.639,35.638,11.692,8.644-5.008,24.692-10.3,35.166-11.7l1.559-.188a4.013,4.013,0,0,0,3.2-3.688V155.866a3.612,3.612,0,0,0-4.071-3.713c-.146.01-.571.017-.717.017-8.261.728-21.873,5.29-29.271,9.945l-.71.463a10.431,10.431,0,0,1-10.543.052l-1.072-.64c-7.5-4.677-21.094-9.183-29.751-9.882C148.061,152.1,147.935,152.094,147.817,152.094Z"/><path class="cls-4" d="M184.235,233.083a5.346,5.346,0,0,1-5.344-5.345V159.593a5.345,5.345,0,1,1,10.689,0v68.145A5.346,5.346,0,0,1,184.235,233.083Z"/></svg>