<svg width="665" height="552" viewBox="0 0 665 552" fill="none" xmlns="http://www.w3.org/2000/svg">
<circle cx="334" cy="276" r="273.5" stroke="#2D2E32" stroke-width="5"/>
<path fill-rule="evenodd" clip-rule="evenodd" d="M334 528C473.176 528 586 415.176 586 276C586 136.824 473.176 24 334 24C194.824 24 82 136.824 82 276C82 415.176 194.824 528 334 528ZM334 436C422.366 436 494 364.366 494 276C494 187.634 422.366 116 334 116C245.634 116 174 187.634 174 276C174 364.366 245.634 436 334 436Z" fill="#3F976A"/>
<circle cx="184.5" cy="61.5" r="61.5" fill="#2D2E32"/>
<circle cx="184.5" cy="490.5" r="61.5" fill="#2D2E32"/>
<circle cx="480.5" cy="61.5" r="61.5" fill="#2D2E32"/>
<circle cx="480.5" cy="490.5" r="61.5" fill="#2D2E32"/>
<circle cx="61.5" cy="275.5" r="61.5" fill="#2D2E32"/>
<circle cx="603.5" cy="275.5" r="61.5" fill="#2D2E32"/>
</svg>
